<svg xmlns="http://www.w3.org/2000/svg" viewBox="0 612 1597 1474" width="32" height="32">
<g transform="translate(0,2476) scale(0.1,-0.1)" fill="#ED1F24" stroke="none">
<path d="M8970 18631 c-551 -7 -530 -5 -640 -68 -56 -32 -2211 -2187 -2258
-2257 -17 -27 -42 -74 -54 -105 l-23 -56 -3 -4850 c-2 -4326 0 -4856 13 -4910
37 -144 -22 -81 1184 -1286 1032 -1031 1121 -1118 1182 -1147 36 -17 87 -36
115 -42 34 -7 820 -10 2514 -8 l2465 3 60 24 c33 13 83 38 110 56 60 38 1059
1022 1722 1696 514 522 528 539 581 694 l27 80 0 4805 0 4805 -23 75 c-48 153
-58 165 -472 589 -576 589 -1777 1777 -1839 1818 -30 20 -84 47 -121 59 l-68
24 -1983 4 c-1091 2 -2211 0 -2489 -3z m4370 -388 c151 -52 129 -32 1160
-1063 643 -643 979 -986 1007 -1028 23 -34 52 -88 64 -120 l23 -57 9 -2001 c5
-1141 5 -3164 0 -4705 l-9 -2704 -22 -56 c-13 -32 -41 -85 -63 -119 -27 -42
-342 -364 -1017 -1039 -1051 -1053 -1006 -1011 -1157 -1058 -58 -17 -154 -18
-2350 -17 -2099 1 -2295 2 -2354 18 -138 35 -148 44 -691 580 -278 275 -724
721 -991 992 -527 536 -529 538 -571 691 l-21 78 -4 4610 c-4 3381 -2 4630 6
4685 7 51 25 102 52 159 49 98 -37 10 1164 1203 486 482 872 858 900 876 28
17 82 44 120 59 67 26 80 27 300 33 127 4 1164 6 2305 6 l2075 -1 65 -22z"/>
<path d="M8930 17770 c-93 -9 -140 -23 -233 -72 -53 -28 -189 -159 -897 -862
-459 -457 -854 -855 -877 -885 -48 -64 -78 -135 -94 -226 -15 -87 -6 -8908 9
-8975 17 -72 50 -153 84 -206 43 -64 1678 -1700 1743 -1742 27 -18 79 -42 115
-54 l65 -21 2115 0 c2326 -1 2165 -5 2290 58 66 34 112 75 403 363 l248 246
-838 838 -838 838 -1512 0 -1513 0 0 4165 0 4165 1780 0 1780 0 0 -3903 0
-3902 833 -833 c457 -457 837 -832 842 -832 6 0 141 135 302 299 261 268 295
307 327 373 69 140 63 -69 70 2703 3 1386 2 3395 -2 4465 l-8 1945 -26 73
c-46 128 -82 174 -349 451 -434 451 -1376 1377 -1449 1425 -36 24 -99 56 -140
72 l-75 28 -405 7 c-536 9 -3641 8 -3750 -1z"/>
<path d="M9670 11265 l0 -3695 1315 0 1315 0 0 3695 0 3695 -1315 0 -1315 0 0
-3695z m2250 -10 l0 -3325 -940 0 -940 0 0 3325 0 3325 940 0 940 0 0 -3325z"/>
<path d="M0 16610 l0 -2010 600 0 600 0 0 -5345 0 -5344 37 -8 c21 -4 898 -8
1948 -8 l1910 0 44 25 c50 28 76 71 90 145 10 56 6 14457 -4 14518 l-7 37
-2609 0 -2609 0 0 -2010z m4820 -5340 l0 -6980 -1617 2 -1618 3 -3 5337 -2
5338 -593 2 -592 3 -3 1625 c-1 894 0 1631 3 1638 3 9 456 12 2215 12 l2210 0
0 -6980z"/>
<path d="M867 17783 c-4 -3 -7 -529 -7 -1169 l0 -1162 228 -7 c125 -4 326 -4
447 0 279 11 321 11 368 2 48 -10 100 -56 123 -110 18 -41 19 -209 24 -5307 3
-2896 6 -5266 8 -5267 1 -2 522 -3 1157 -3 l1155 0 -2 6513 -3 6512 -1746 3
c-960 1 -1749 -1 -1752 -5z"/>
</g>
</svg>
